<mxfile host="Electron" modified="2024-07-14T22:06:06.787Z" agent="Mozilla/5.0 (Windows NT 10.0; Win64; x64) AppleWebKit/537.36 (KHTML, like Gecko) draw.io/24.6.4 Chrome/124.0.6367.207 Electron/30.0.6 Safari/537.36" etag="QKnETSpI2fp8lN9q-EL6" version="24.6.4" type="device">
  <diagram name="Page-1" id="2YBvvXClWsGukQMizWep">
    <mxGraphModel dx="2001" dy="727" grid="1" gridSize="10" guides="1" tooltips="1" connect="1" arrows="1" fold="1" page="1" pageScale="1" pageWidth="850" pageHeight="1100" math="0" shadow="0">
      <root>
        <mxCell id="0" />
        <mxCell id="1" parent="0" />
        <mxCell id="zXqe-skKa9n1tSLBKoxi-4" value="" style="group" vertex="1" connectable="0" parent="1">
          <mxGeometry x="-609" y="43" width="18" height="474" as="geometry" />
        </mxCell>
        <mxCell id="zXqe-skKa9n1tSLBKoxi-5" value="" style="endArrow=none;dashed=1;html=1;rounded=0;" edge="1" parent="zXqe-skKa9n1tSLBKoxi-4">
          <mxGeometry width="50" height="50" relative="1" as="geometry">
            <mxPoint x="9" y="667" as="sourcePoint" />
            <mxPoint x="9" y="65" as="targetPoint" />
          </mxGeometry>
        </mxCell>
        <mxCell id="zXqe-skKa9n1tSLBKoxi-6" value="User" style="shape=umlActor;verticalLabelPosition=bottom;verticalAlign=top;html=1;outlineConnect=0;" vertex="1" parent="zXqe-skKa9n1tSLBKoxi-4">
          <mxGeometry width="18" height="39" as="geometry" />
        </mxCell>
        <mxCell id="FHikSXadTse9UsYCf57V-25" value="&lt;span style=&quot;color: rgb(0, 0, 0); font-family: Helvetica; font-style: normal; font-variant-ligatures: normal; font-variant-caps: normal; font-weight: 400; letter-spacing: normal; orphans: 2; text-align: center; text-indent: 0px; text-transform: none; widows: 2; word-spacing: 0px; -webkit-text-stroke-width: 0px; white-space: nowrap; background-color: rgb(255, 255, 255); text-decoration-thickness: initial; text-decoration-style: initial; text-decoration-color: initial; float: none; display: inline !important;&quot;&gt;&lt;font style=&quot;font-size: 9px;&quot;&gt;Submits reply with text and image&lt;/font&gt;&lt;/span&gt;" style="text;whiteSpace=wrap;html=1;container=0;" parent="1" vertex="1">
          <mxGeometry x="-593.5" y="110.02000000000001" width="142.5" height="24.98" as="geometry" />
        </mxCell>
        <mxCell id="FHikSXadTse9UsYCf57V-3" value="CommentController:" style="shape=umlLifeline;perimeter=lifelinePerimeter;whiteSpace=wrap;html=1;container=0;dropTarget=0;collapsible=0;recursiveResize=0;outlineConnect=0;portConstraint=eastwest;newEdgeStyle={&quot;edgeStyle&quot;:&quot;elbowEdgeStyle&quot;,&quot;elbow&quot;:&quot;vertical&quot;,&quot;curved&quot;:0,&quot;rounded&quot;:0};fontStyle=4" parent="1" vertex="1">
          <mxGeometry x="-25.5" y="49" width="120" height="688" as="geometry" />
        </mxCell>
        <mxCell id="FHikSXadTse9UsYCf57V-4" value="CommentModel" style="shape=umlLifeline;perimeter=lifelinePerimeter;whiteSpace=wrap;html=1;container=0;dropTarget=0;collapsible=0;recursiveResize=0;outlineConnect=0;portConstraint=eastwest;newEdgeStyle={&quot;edgeStyle&quot;:&quot;elbowEdgeStyle&quot;,&quot;elbow&quot;:&quot;vertical&quot;,&quot;curved&quot;:0,&quot;rounded&quot;:0};fontStyle=4;size=37;" parent="1" vertex="1">
          <mxGeometry x="164.5" y="49" width="120" height="716" as="geometry" />
        </mxCell>
        <mxCell id="FHikSXadTse9UsYCf57V-5" value="" style="html=1;verticalAlign=bottom;endArrow=block;edgeStyle=elbowEdgeStyle;elbow=horizontal;curved=0;rounded=0;fontStyle=4" parent="1" source="FHikSXadTse9UsYCf57V-30" edge="1">
          <mxGeometry relative="1" as="geometry">
            <mxPoint x="-171.5" y="161" as="sourcePoint" />
            <Array as="points">
              <mxPoint x="-111.5" y="161" />
            </Array>
            <mxPoint x="30" y="161" as="targetPoint" />
            <mxPoint as="offset" />
          </mxGeometry>
        </mxCell>
        <mxCell id="FHikSXadTse9UsYCf57V-9" value="" style="html=1;verticalAlign=bottom;endArrow=block;dashed=1;endSize=8;edgeStyle=elbowEdgeStyle;elbow=vertical;curved=0;rounded=0;endFill=1;fontStyle=4" parent="1" edge="1">
          <mxGeometry x="-0.0945" relative="1" as="geometry">
            <mxPoint x="-234.5" y="259" as="targetPoint" />
            <Array as="points">
              <mxPoint x="-80.5" y="259" />
            </Array>
            <mxPoint x="29.5" y="259" as="sourcePoint" />
            <mxPoint as="offset" />
          </mxGeometry>
        </mxCell>
        <mxCell id="FHikSXadTse9UsYCf57V-10" value="Router" style="shape=umlLifeline;perimeter=lifelinePerimeter;whiteSpace=wrap;html=1;container=0;dropTarget=0;collapsible=0;recursiveResize=0;outlineConnect=0;portConstraint=eastwest;newEdgeStyle={&quot;edgeStyle&quot;:&quot;elbowEdgeStyle&quot;,&quot;elbow&quot;:&quot;vertical&quot;,&quot;curved&quot;:0,&quot;rounded&quot;:0};fontStyle=4" parent="1" vertex="1">
          <mxGeometry x="-289.5" y="49" width="100" height="666" as="geometry" />
        </mxCell>
        <mxCell id="FHikSXadTse9UsYCf57V-11" value="Return  not found" style="html=1;verticalAlign=bottom;endArrow=block;dashed=1;endSize=8;edgeStyle=elbowEdgeStyle;elbow=vertical;curved=0;rounded=0;endFill=1;fontStyle=0" parent="1" edge="1">
          <mxGeometry relative="1" as="geometry">
            <mxPoint x="40.5" y="382.5" as="targetPoint" />
            <Array as="points">
              <mxPoint x="105.5" y="382.5" />
            </Array>
            <mxPoint x="219.5" y="381.5" as="sourcePoint" />
            <mxPoint as="offset" />
          </mxGeometry>
        </mxCell>
        <mxCell id="FHikSXadTse9UsYCf57V-12" value="Return not found" style="html=1;verticalAlign=bottom;endArrow=block;dashed=1;endSize=8;edgeStyle=elbowEdgeStyle;elbow=horizontal;curved=0;rounded=0;endFill=1;fontStyle=0" parent="1" edge="1">
          <mxGeometry x="-0.0945" relative="1" as="geometry">
            <mxPoint x="-234.5" y="406.5" as="targetPoint" />
            <Array as="points">
              <mxPoint x="-80.5" y="406.5" />
            </Array>
            <mxPoint x="29.5" y="406.5" as="sourcePoint" />
            <mxPoint as="offset" />
          </mxGeometry>
        </mxCell>
        <mxCell id="FHikSXadTse9UsYCf57V-13" value="" style="html=1;verticalAlign=bottom;endArrow=block;dashed=1;endSize=8;edgeStyle=elbowEdgeStyle;elbow=vertical;curved=0;rounded=0;endFill=1;fontStyle=4" parent="1" target="FHikSXadTse9UsYCf57V-44" edge="1">
          <mxGeometry x="-0.0945" relative="1" as="geometry">
            <mxPoint x="-391.5" y="269.76" as="targetPoint" />
            <Array as="points" />
            <mxPoint x="-244.5" y="269.76" as="sourcePoint" />
            <mxPoint as="offset" />
          </mxGeometry>
        </mxCell>
        <mxCell id="FHikSXadTse9UsYCf57V-19" value="&lt;span style=&quot;font-size: 11px; text-align: center; text-wrap: nowrap; background-color: rgb(255, 255, 255);&quot;&gt;Returns parent comment&lt;/span&gt;" style="text;whiteSpace=wrap;html=1;container=0;" parent="1" vertex="1">
          <mxGeometry x="-128.50197204589847" y="235.99766855875657" width="83" height="36" as="geometry" />
        </mxCell>
        <mxCell id="FHikSXadTse9UsYCf57V-22" value="&lt;span style=&quot;color: rgb(0, 0, 0); font-family: Helvetica; font-size: 10px; font-style: normal; font-variant-ligatures: normal; font-variant-caps: normal; font-weight: 400; letter-spacing: normal; orphans: 2; text-align: center; text-indent: 0px; text-transform: none; widows: 2; word-spacing: 0px; -webkit-text-stroke-width: 0px; white-space: nowrap; background-color: rgb(255, 255, 255); text-decoration-thickness: initial; text-decoration-style: initial; text-decoration-color: initial; float: none; display: inline !important;&quot;&gt; createReplyComment &lt;/span&gt;" style="text;whiteSpace=wrap;html=1;container=0;fontSize=10;" parent="1" vertex="1">
          <mxGeometry x="-168.38" y="138" width="99.38" height="24.98" as="geometry" />
        </mxCell>
        <mxCell id="FHikSXadTse9UsYCf57V-28" value="" style="html=1;points=[];perimeter=orthogonalPerimeter;outlineConnect=0;targetShapes=umlLifeline;portConstraint=eastwest;newEdgeStyle={&quot;edgeStyle&quot;:&quot;elbowEdgeStyle&quot;,&quot;elbow&quot;:&quot;vertical&quot;,&quot;curved&quot;:0,&quot;rounded&quot;:0};fontStyle=4;container=0;" parent="1" vertex="1">
          <mxGeometry x="30.75" y="140" width="10" height="500" as="geometry" />
        </mxCell>
        <mxCell id="FHikSXadTse9UsYCf57V-29" value="" style="html=1;points=[];perimeter=orthogonalPerimeter;outlineConnect=0;targetShapes=umlLifeline;portConstraint=eastwest;newEdgeStyle={&quot;edgeStyle&quot;:&quot;elbowEdgeStyle&quot;,&quot;elbow&quot;:&quot;vertical&quot;,&quot;curved&quot;:0,&quot;rounded&quot;:0};fontStyle=4;container=0;" parent="1" vertex="1">
          <mxGeometry x="219.5" y="139" width="10" height="501" as="geometry" />
        </mxCell>
        <mxCell id="FHikSXadTse9UsYCf57V-30" value="" style="html=1;points=[];perimeter=orthogonalPerimeter;outlineConnect=0;targetShapes=umlLifeline;portConstraint=eastwest;newEdgeStyle={&quot;edgeStyle&quot;:&quot;elbowEdgeStyle&quot;,&quot;elbow&quot;:&quot;vertical&quot;,&quot;curved&quot;:0,&quot;rounded&quot;:0};fontStyle=4;container=0;" parent="1" vertex="1">
          <mxGeometry x="-244.5" y="129" width="10" height="511" as="geometry" />
        </mxCell>
        <mxCell id="FHikSXadTse9UsYCf57V-45" value="" style="html=1;verticalAlign=bottom;endArrow=block;edgeStyle=elbowEdgeStyle;elbow=horizontal;curved=0;rounded=0;fontStyle=4" parent="1" source="FHikSXadTse9UsYCf57V-24" target="FHikSXadTse9UsYCf57V-44" edge="1">
          <mxGeometry relative="1" as="geometry">
            <mxPoint x="-566" y="132" as="sourcePoint" />
            <Array as="points">
              <mxPoint x="-453.5" y="132" />
            </Array>
            <mxPoint x="-410" y="132" as="targetPoint" />
            <mxPoint as="offset" />
          </mxGeometry>
        </mxCell>
        <mxCell id="FHikSXadTse9UsYCf57V-6" value="" style="html=1;verticalAlign=bottom;endArrow=block;edgeStyle=elbowEdgeStyle;elbow=horizontal;curved=0;rounded=0;fontStyle=4" parent="1" source="FHikSXadTse9UsYCf57V-44" target="FHikSXadTse9UsYCf57V-30" edge="1">
          <mxGeometry relative="1" as="geometry">
            <mxPoint x="-427" y="136" as="sourcePoint" />
            <Array as="points">
              <mxPoint x="-312.5" y="136" />
            </Array>
            <mxPoint x="-252.5" y="136" as="targetPoint" />
            <mxPoint as="offset" />
          </mxGeometry>
        </mxCell>
        <mxCell id="FHikSXadTse9UsYCf57V-64" value="Returns parent comment " style="html=1;verticalAlign=bottom;endArrow=block;dashed=1;endSize=8;edgeStyle=elbowEdgeStyle;elbow=vertical;curved=0;rounded=0;endFill=1;fontStyle=0" parent="1" edge="1">
          <mxGeometry relative="1" as="geometry">
            <mxPoint x="40.5" y="237" as="targetPoint" />
            <Array as="points">
              <mxPoint x="105.5" y="237" />
            </Array>
            <mxPoint x="219.5" y="236" as="sourcePoint" />
            <mxPoint as="offset" />
          </mxGeometry>
        </mxCell>
        <mxCell id="FHikSXadTse9UsYCf57V-65" value="" style="group" parent="1" vertex="1" connectable="0">
          <mxGeometry x="39.75" y="145" width="110.25" height="25" as="geometry" />
        </mxCell>
        <mxCell id="FHikSXadTse9UsYCf57V-21" value="&lt;span style=&quot;color: rgb(0, 0, 0); font-family: Helvetica; font-size: 11px; font-style: normal; font-variant-ligatures: normal; font-variant-caps: normal; font-weight: 400; letter-spacing: normal; orphans: 2; text-align: center; text-indent: 0px; text-transform: none; widows: 2; word-spacing: 0px; -webkit-text-stroke-width: 0px; white-space: nowrap; background-color: rgb(255, 255, 255); text-decoration-thickness: initial; text-decoration-style: initial; text-decoration-color: initial; display: inline !important; float: none;&quot;&gt;findParentCommentById&lt;/span&gt;" style="text;whiteSpace=wrap;html=1;container=0;" parent="FHikSXadTse9UsYCf57V-65" vertex="1">
          <mxGeometry x="29.70205479452055" width="80.54794520547945" height="24.98" as="geometry" />
        </mxCell>
        <mxCell id="FHikSXadTse9UsYCf57V-66" value="&lt;font style=&quot;font-size: 12px;&quot;&gt;Parent comment exists&lt;/font&gt;" style="shape=umlFrame;whiteSpace=wrap;html=1;pointerEvents=0;width=153;height=16;container=0;" parent="1" vertex="1">
          <mxGeometry x="-760" y="210" width="1060" height="105" as="geometry" />
        </mxCell>
        <mxCell id="FHikSXadTse9UsYCf57V-24" value="" style="html=1;points=[];perimeter=orthogonalPerimeter;outlineConnect=0;targetShapes=umlLifeline;portConstraint=eastwest;newEdgeStyle={&quot;edgeStyle&quot;:&quot;elbowEdgeStyle&quot;,&quot;elbow&quot;:&quot;vertical&quot;,&quot;curved&quot;:0,&quot;rounded&quot;:0};fontStyle=4;container=0;" parent="1" vertex="1">
          <mxGeometry x="-605" y="120" width="10" height="519.5" as="geometry" />
        </mxCell>
        <mxCell id="FHikSXadTse9UsYCf57V-26" value="Parent comment not found" style="shape=umlFrame;whiteSpace=wrap;html=1;pointerEvents=0;width=159;height=16;container=0;" parent="1" vertex="1">
          <mxGeometry x="-649.25" y="354.5" width="949.25" height="105" as="geometry" />
        </mxCell>
        <mxCell id="FHikSXadTse9UsYCf57V-46" value="" style="html=1;verticalAlign=bottom;endArrow=block;dashed=1;endSize=8;edgeStyle=elbowEdgeStyle;elbow=vertical;curved=0;rounded=0;endFill=1;fontStyle=4;" parent="1" edge="1">
          <mxGeometry x="-0.0945" relative="1" as="geometry">
            <mxPoint x="-595" y="280" as="targetPoint" />
            <Array as="points" />
            <mxPoint x="-440" y="280" as="sourcePoint" />
            <mxPoint as="offset" />
          </mxGeometry>
        </mxCell>
        <mxCell id="FHikSXadTse9UsYCf57V-83" value="&lt;span style=&quot;color: rgb(0, 0, 0); font-family: Helvetica; font-size: 10px; font-style: normal; font-variant-ligatures: normal; font-variant-caps: normal; font-weight: 400; letter-spacing: normal; orphans: 2; text-align: center; text-indent: 0px; text-transform: none; widows: 2; word-spacing: 0px; -webkit-text-stroke-width: 0px; white-space: nowrap; background-color: rgb(255, 255, 255); text-decoration-thickness: initial; text-decoration-style: initial; text-decoration-color: initial; display: inline !important; float: none;&quot;&gt;Display Comments&lt;/span&gt;" style="text;whiteSpace=wrap;html=1;" parent="1" vertex="1">
          <mxGeometry x="-550" y="260" width="110" height="40" as="geometry" />
        </mxCell>
        <mxCell id="FHikSXadTse9UsYCf57V-43" value="React App" style="shape=umlLifeline;perimeter=lifelinePerimeter;whiteSpace=wrap;html=1;container=0;dropTarget=0;collapsible=0;recursiveResize=0;outlineConnect=0;portConstraint=eastwest;newEdgeStyle={&quot;edgeStyle&quot;:&quot;elbowEdgeStyle&quot;,&quot;elbow&quot;:&quot;vertical&quot;,&quot;curved&quot;:0,&quot;rounded&quot;:0};fontStyle=4;size=40;" parent="1" vertex="1">
          <mxGeometry x="-480" y="52" width="100" height="668" as="geometry" />
        </mxCell>
        <mxCell id="FHikSXadTse9UsYCf57V-44" value="" style="html=1;points=[];perimeter=orthogonalPerimeter;outlineConnect=0;targetShapes=umlLifeline;portConstraint=eastwest;newEdgeStyle={&quot;edgeStyle&quot;:&quot;elbowEdgeStyle&quot;,&quot;elbow&quot;:&quot;vertical&quot;,&quot;curved&quot;:0,&quot;rounded&quot;:0};fontStyle=4;container=1;" parent="FHikSXadTse9UsYCf57V-43" vertex="1">
          <mxGeometry x="45" y="77" width="10" height="513" as="geometry" />
        </mxCell>
        <mxCell id="FHikSXadTse9UsYCf57V-48" value="&lt;span style=&quot;color: rgb(0, 0, 0); font-family: Helvetica; font-style: normal; font-variant-ligatures: normal; font-variant-caps: normal; font-weight: 400; letter-spacing: normal; orphans: 2; text-align: center; text-indent: 0px; text-transform: none; widows: 2; word-spacing: 0px; -webkit-text-stroke-width: 0px; white-space: nowrap; background-color: rgb(255, 255, 255); text-decoration-thickness: initial; text-decoration-style: initial; text-decoration-color: initial; float: none; display: inline !important;&quot;&gt;&lt;font style=&quot;font-size: 9px;&quot;&gt;Send POST request for comment reply&lt;/font&gt;&lt;/span&gt;" style="text;whiteSpace=wrap;html=1;container=0;fontSize=10;" parent="1" vertex="1">
          <mxGeometry x="-420" y="115" width="175" height="24.98" as="geometry" />
        </mxCell>
        <mxCell id="FHikSXadTse9UsYCf57V-23" value="&lt;span style=&quot;font-size: 10px; text-align: center; text-wrap: nowrap; background-color: rgb(255, 255, 255);&quot;&gt;Show Comments&lt;/span&gt;" style="text;whiteSpace=wrap;html=1;container=0;" parent="1" vertex="1">
          <mxGeometry x="-399.9953053792317" y="246.75433522542318" width="121" height="36" as="geometry" />
        </mxCell>
        <mxCell id="FHikSXadTse9UsYCf57V-27" value="Input validation succeeds" style="shape=umlFrame;whiteSpace=wrap;html=1;pointerEvents=0;width=149;height=17;container=0;" parent="1" vertex="1">
          <mxGeometry x="-770" y="185" width="1440" height="485" as="geometry" />
        </mxCell>
        <mxCell id="FHikSXadTse9UsYCf57V-7" value="" style="html=1;verticalAlign=bottom;endArrow=block;edgeStyle=elbowEdgeStyle;elbow=vertical;curved=0;rounded=0;fontStyle=4;" parent="1" target="FHikSXadTse9UsYCf57V-29" edge="1">
          <mxGeometry x="-0.0279" y="2" relative="1" as="geometry">
            <mxPoint x="40.75" y="168" as="sourcePoint" />
            <Array as="points">
              <mxPoint x="200" y="170" />
              <mxPoint x="127.75" y="168" />
            </Array>
            <mxPoint x="214.75" y="168" as="targetPoint" />
            <mxPoint as="offset" />
          </mxGeometry>
        </mxCell>
        <mxCell id="FHikSXadTse9UsYCf57V-111" value=" imageUploader" style="shape=umlLifeline;perimeter=lifelinePerimeter;whiteSpace=wrap;html=1;container=0;dropTarget=0;collapsible=0;recursiveResize=0;outlineConnect=0;portConstraint=eastwest;newEdgeStyle={&quot;edgeStyle&quot;:&quot;elbowEdgeStyle&quot;,&quot;elbow&quot;:&quot;vertical&quot;,&quot;curved&quot;:0,&quot;rounded&quot;:0};fontStyle=4;size=37;" parent="1" vertex="1">
          <mxGeometry x="320" y="49" width="120" height="716" as="geometry" />
        </mxCell>
        <mxCell id="FHikSXadTse9UsYCf57V-112" value="" style="html=1;points=[];perimeter=orthogonalPerimeter;outlineConnect=0;targetShapes=umlLifeline;portConstraint=eastwest;newEdgeStyle={&quot;edgeStyle&quot;:&quot;elbowEdgeStyle&quot;,&quot;elbow&quot;:&quot;vertical&quot;,&quot;curved&quot;:0,&quot;rounded&quot;:0};fontStyle=4;container=0;" parent="FHikSXadTse9UsYCf57V-111" vertex="1">
          <mxGeometry x="55" y="87.5" width="10" height="481" as="geometry" />
        </mxCell>
        <mxCell id="FHikSXadTse9UsYCf57V-38" value="Image is provided" style="shape=umlFrame;whiteSpace=wrap;html=1;pointerEvents=0;width=149;height=17;container=0;" parent="1" vertex="1">
          <mxGeometry x="-650" y="512.5" width="1250" height="137.5" as="geometry" />
        </mxCell>
        <mxCell id="FHikSXadTse9UsYCf57V-115" value="CloudinaryServer" style="shape=umlLifeline;perimeter=lifelinePerimeter;whiteSpace=wrap;html=1;container=0;dropTarget=0;collapsible=0;recursiveResize=0;outlineConnect=0;portConstraint=eastwest;newEdgeStyle={&quot;edgeStyle&quot;:&quot;elbowEdgeStyle&quot;,&quot;elbow&quot;:&quot;vertical&quot;,&quot;curved&quot;:0,&quot;rounded&quot;:0};fontStyle=4;size=37;" parent="1" vertex="1">
          <mxGeometry x="500" y="49" width="120" height="716" as="geometry" />
        </mxCell>
        <mxCell id="FHikSXadTse9UsYCf57V-116" value="" style="html=1;points=[];perimeter=orthogonalPerimeter;outlineConnect=0;targetShapes=umlLifeline;portConstraint=eastwest;newEdgeStyle={&quot;edgeStyle&quot;:&quot;elbowEdgeStyle&quot;,&quot;elbow&quot;:&quot;vertical&quot;,&quot;curved&quot;:0,&quot;rounded&quot;:0};fontStyle=4;container=0;" parent="FHikSXadTse9UsYCf57V-115" vertex="1">
          <mxGeometry x="55" y="90" width="10" height="481" as="geometry" />
        </mxCell>
        <mxCell id="FHikSXadTse9UsYCf57V-119" value="" style="group" parent="1" vertex="1" connectable="0">
          <mxGeometry x="229.5" y="510" width="186.5" height="40" as="geometry" />
        </mxCell>
        <mxCell id="FHikSXadTse9UsYCf57V-117" value="" style="html=1;verticalAlign=bottom;endArrow=block;edgeStyle=elbowEdgeStyle;elbow=vertical;curved=0;rounded=0;fontStyle=4;" parent="FHikSXadTse9UsYCf57V-119" edge="1">
          <mxGeometry x="-0.0279" y="2" relative="1" as="geometry">
            <mxPoint y="22" as="sourcePoint" />
            <Array as="points">
              <mxPoint x="0.5" y="22" />
              <mxPoint x="57.5" y="15" />
            </Array>
            <mxPoint x="145.5" y="22" as="targetPoint" />
            <mxPoint as="offset" />
          </mxGeometry>
        </mxCell>
        <mxCell id="FHikSXadTse9UsYCf57V-118" value="&lt;span style=&quot;color: rgb(0, 0, 0); font-family: Helvetica; font-size: 11px; font-style: normal; font-variant-ligatures: normal; font-variant-caps: normal; font-weight: 400; letter-spacing: normal; orphans: 2; text-align: center; text-indent: 0px; text-transform: none; widows: 2; word-spacing: 0px; -webkit-text-stroke-width: 0px; white-space: nowrap; background-color: rgb(255, 255, 255); text-decoration-thickness: initial; text-decoration-style: initial; text-decoration-color: initial; display: inline !important; float: none;&quot;&gt;upload image&lt;/span&gt;" style="text;whiteSpace=wrap;html=1;" parent="FHikSXadTse9UsYCf57V-119" vertex="1">
          <mxGeometry x="36.5" width="150" height="40" as="geometry" />
        </mxCell>
        <mxCell id="FHikSXadTse9UsYCf57V-120" value="" style="group" parent="1" vertex="1" connectable="0">
          <mxGeometry x="386" y="530" width="214" height="40" as="geometry" />
        </mxCell>
        <mxCell id="FHikSXadTse9UsYCf57V-121" value="" style="html=1;verticalAlign=bottom;endArrow=block;edgeStyle=elbowEdgeStyle;elbow=vertical;curved=0;rounded=0;fontStyle=4;" parent="FHikSXadTse9UsYCf57V-120" edge="1">
          <mxGeometry x="-0.0279" y="2" relative="1" as="geometry">
            <mxPoint y="22" as="sourcePoint" />
            <Array as="points">
              <mxPoint x="0.5737265415549597" y="22" />
              <mxPoint x="65.97855227882039" y="15" />
            </Array>
            <mxPoint x="166.95442359249336" y="22" as="targetPoint" />
            <mxPoint as="offset" />
          </mxGeometry>
        </mxCell>
        <mxCell id="FHikSXadTse9UsYCf57V-122" value="&lt;span style=&quot;color: rgb(0, 0, 0); font-family: Helvetica; font-size: 11px; font-style: normal; font-variant-ligatures: normal; font-variant-caps: normal; font-weight: 400; letter-spacing: normal; orphans: 2; text-align: center; text-indent: 0px; text-transform: none; widows: 2; word-spacing: 0px; -webkit-text-stroke-width: 0px; white-space: nowrap; background-color: rgb(255, 255, 255); text-decoration-thickness: initial; text-decoration-style: initial; text-decoration-color: initial; display: inline !important; float: none;&quot;&gt;Send request upload image&lt;/span&gt;" style="text;whiteSpace=wrap;html=1;container=0;" parent="FHikSXadTse9UsYCf57V-120" vertex="1">
          <mxGeometry x="10" width="204" height="40" as="geometry" />
        </mxCell>
        <mxCell id="FHikSXadTse9UsYCf57V-126" value="Return URL" style="html=1;verticalAlign=bottom;endArrow=block;dashed=1;endSize=8;edgeStyle=elbowEdgeStyle;elbow=vertical;curved=0;rounded=0;endFill=1;fontStyle=0" parent="1" edge="1">
          <mxGeometry relative="1" as="geometry">
            <mxPoint x="386" y="581" as="targetPoint" />
            <Array as="points">
              <mxPoint x="451" y="581" />
            </Array>
            <mxPoint x="565" y="580" as="sourcePoint" />
            <mxPoint as="offset" />
          </mxGeometry>
        </mxCell>
        <mxCell id="FHikSXadTse9UsYCf57V-129" value="Return URL" style="html=1;verticalAlign=bottom;endArrow=block;dashed=1;endSize=8;edgeStyle=elbowEdgeStyle;elbow=vertical;curved=0;rounded=0;endFill=1;fontStyle=0" parent="1" source="FHikSXadTse9UsYCf57V-112" edge="1">
          <mxGeometry relative="1" as="geometry">
            <mxPoint x="229.5" y="591" as="targetPoint" />
            <Array as="points" />
            <mxPoint x="370" y="590" as="sourcePoint" />
            <mxPoint as="offset" />
          </mxGeometry>
        </mxCell>
        <mxCell id="FHikSXadTse9UsYCf57V-130" value="&lt;font style=&quot;font-size: 10px;&quot;&gt;Receive image URL from Cloudinary&lt;/font&gt;" style="html=1;verticalAlign=bottom;endArrow=block;dashed=1;endSize=8;edgeStyle=elbowEdgeStyle;elbow=vertical;curved=0;rounded=0;endFill=1;fontStyle=0" parent="1" edge="1">
          <mxGeometry relative="1" as="geometry">
            <mxPoint x="40.75" y="597" as="targetPoint" />
            <Array as="points">
              <mxPoint x="105.75" y="597" />
            </Array>
            <mxPoint x="219.75" y="596" as="sourcePoint" />
            <mxPoint as="offset" />
          </mxGeometry>
        </mxCell>
        <mxCell id="FHikSXadTse9UsYCf57V-131" value="&lt;font style=&quot;font-size: 10px;&quot;&gt;Return Comments&lt;/font&gt;" style="html=1;verticalAlign=bottom;endArrow=block;dashed=1;endSize=8;edgeStyle=elbowEdgeStyle;elbow=horizontal;curved=0;rounded=0;endFill=1;fontStyle=0" parent="1" edge="1">
          <mxGeometry x="-0.0945" relative="1" as="geometry">
            <mxPoint x="-235" y="609" as="targetPoint" />
            <Array as="points">
              <mxPoint x="-81" y="609" />
            </Array>
            <mxPoint x="29" y="609" as="sourcePoint" />
            <mxPoint as="offset" />
          </mxGeometry>
        </mxCell>
        <mxCell id="FHikSXadTse9UsYCf57V-132" value="&lt;font style=&quot;font-size: 10px;&quot;&gt;Show Comments&lt;/font&gt;" style="html=1;verticalAlign=bottom;endArrow=block;dashed=1;endSize=8;edgeStyle=elbowEdgeStyle;elbow=vertical;curved=0;rounded=0;endFill=1;fontStyle=0" parent="1" source="FHikSXadTse9UsYCf57V-30" edge="1">
          <mxGeometry x="-0.0945" relative="1" as="geometry">
            <mxPoint x="-425" y="621" as="targetPoint" />
            <Array as="points" />
            <mxPoint x="-250.5" y="621" as="sourcePoint" />
            <mxPoint as="offset" />
          </mxGeometry>
        </mxCell>
        <mxCell id="FHikSXadTse9UsYCf57V-137" value="" style="html=1;verticalAlign=bottom;endArrow=block;dashed=1;endSize=8;edgeStyle=elbowEdgeStyle;elbow=vertical;curved=0;rounded=0;endFill=1;fontStyle=4;" parent="1" edge="1">
          <mxGeometry x="-0.0945" relative="1" as="geometry">
            <mxPoint x="-595" y="630.28" as="targetPoint" />
            <Array as="points" />
            <mxPoint x="-440" y="630.28" as="sourcePoint" />
            <mxPoint as="offset" />
          </mxGeometry>
        </mxCell>
        <mxCell id="FHikSXadTse9UsYCf57V-138" value="&lt;span style=&quot;color: rgb(0, 0, 0); font-family: Helvetica; font-size: 10px; font-style: normal; font-variant-ligatures: normal; font-variant-caps: normal; font-weight: 400; letter-spacing: normal; orphans: 2; text-align: center; text-indent: 0px; text-transform: none; widows: 2; word-spacing: 0px; -webkit-text-stroke-width: 0px; white-space: nowrap; background-color: rgb(255, 255, 255); text-decoration-thickness: initial; text-decoration-style: initial; text-decoration-color: initial; display: inline !important; float: none;&quot;&gt;Display Comments&lt;/span&gt;" style="text;whiteSpace=wrap;html=1;" parent="1" vertex="1">
          <mxGeometry x="-570" y="608" width="110" height="40" as="geometry" />
        </mxCell>
        <mxCell id="FHikSXadTse9UsYCf57V-144" value="&lt;font style=&quot;font-size: 11px;&quot;&gt;Show&amp;nbsp;&lt;span style=&quot;&quot;&gt;not found&amp;nbsp;&lt;/span&gt;message&amp;nbsp;&lt;/font&gt;" style="html=1;verticalAlign=bottom;endArrow=block;dashed=1;endSize=8;edgeStyle=elbowEdgeStyle;elbow=horizontal;curved=0;rounded=0;endFill=1;fontStyle=0;" parent="1" edge="1">
          <mxGeometry x="-0.0945" relative="1" as="geometry">
            <mxPoint x="-595" y="440" as="targetPoint" />
            <Array as="points" />
            <mxPoint x="-440" y="440" as="sourcePoint" />
            <mxPoint as="offset" />
          </mxGeometry>
        </mxCell>
        <mxCell id="FHikSXadTse9UsYCf57V-146" value="&lt;font style=&quot;font-size: 11px;&quot;&gt;Show&amp;nbsp;&lt;span style=&quot;&quot;&gt;not found&amp;nbsp;&lt;/span&gt;message&amp;nbsp;&lt;/font&gt;" style="html=1;verticalAlign=bottom;endArrow=block;dashed=1;endSize=8;edgeStyle=elbowEdgeStyle;elbow=horizontal;curved=0;rounded=0;endFill=1;fontStyle=0;exitX=0.45;exitY=0.569;exitDx=0;exitDy=0;exitPerimeter=0;" parent="1" edge="1">
          <mxGeometry x="-0.0945" relative="1" as="geometry">
            <mxPoint x="-426" y="420" as="targetPoint" />
            <Array as="points" />
            <mxPoint x="-243" y="419.7589999999998" as="sourcePoint" />
            <mxPoint as="offset" />
          </mxGeometry>
        </mxCell>
      </root>
    </mxGraphModel>
  </diagram>
</mxfile>
